<svg xmlns="http://www.w3.org/2000/svg" viewBox="0 0 400 520" width="400" height="520">
  <title>5<>: 1;03>40@=>ABL (<0:5B)</title>
  <defs>
    <linearGradient id="p" x1="0%" y1="0%" x2="100%" y2="100%">
      <stop offset="0%" style="stop-color:#faf8f4"/>
      <stop offset="100%" style="stop-color:#e8e4dc"/>
    </linearGradient>
    <filter id="s" x="-5%" y="-5%" width="110%" height="110%">
      <feDropShadow dx="0" dy="2" stdDeviation="3" flood-opacity="0.12"/>
    </filter>
  </defs>
  <rect width="400" height="520" fill="url(#p)" filter="url(#s)"/>
  <rect x="16" y="16" width="368" height="488" fill="none" stroke="#0d9488" stroke-width="1.2" opacity="0.55"/>
  <rect x="24" y="24" width="352" height="472" fill="none" stroke="#071525" stroke-width="0.6" opacity="0.2"/>
  <text x="200" y="58" text-anchor="middle" font-family="system-ui,Georgia,serif" font-size="11" font-weight="700" letter-spacing="0.2em" fill="#071525"> !",</text>
  <line x1="100" y1="72" x2="300" y2="72" stroke="#0d9488" stroke-width="0.8" opacity="0.5"/>
  <text x="48" y="108" font-family="system-ui,sans-serif" font-size="9" fill="#334155">#20605<K5 :>;;538!</text>
  <rect x="48" y="118" width="304" height="5" rx="1" fill="#cbd5e1" opacity="0.55"/>
  <rect x="48" y="132" width="280" height="5" rx="1" fill="#cbd5e1" opacity="0.45"/>
  <rect x="48" y="146" width="304" height="5" rx="1" fill="#cbd5e1" opacity="0.35"/>
  <rect x="48" y="172" width="240" height="5" rx="1" fill="#94a3b8" opacity="0.4"/>
  <rect x="48" y="186" width="304" height="5" rx="1" fill="#cbd5e1" opacity="0.35"/>
  <rect x="48" y="212" width="200" height="5" rx="1" fill="#0d9488" opacity="0.28"/>
  <rect x="48" y="226" width="304" height="5" rx="1" fill="#cbd5e1" opacity="0.3"/>
  <circle cx="320" cy="380" r="36" fill="none" stroke="#0d9488" stroke-width="1.2" opacity="0.35"/>
  <text x="320" y="386" text-anchor="middle" font-family="system-ui,sans-serif" font-size="7" fill="#64748b">?5G0BL</text>
  <text x="48" y="460" font-family="system-ui,sans-serif" font-size="8" fill="#64748b">5=5@0;L=K9 48@5:B>@</text>
  <text x="48" y="478" font-family="system-ui,sans-serif" font-size="9" font-weight="600" fill="#071525"> «5<> >38AB8:0» · >A:20</text>
</svg>
